<svg xmlns="http://www.w3.org/2000/svg" viewBox="0 0 120 120" width="1080" height="1080">
  <circle cx="60" cy="60" r="52" fill="none" stroke="#E8EAED" stroke-width="4" stroke-dasharray="12 12" />

  <line x1="20" y1="30" x2="45" y2="45" stroke="#EA4335" stroke-width="2" />
  <line x1="100" y1="40" x2="75" y2="45" stroke="#FBBC04" stroke-width="2" />
  <line x1="85" y1="100" x2="70" y2="80" stroke="#34A853" stroke-width="2" />
  <line x1="30" y1="95" x2="50" y2="80" stroke="#4285F4" stroke-width="2" />

  <circle cx="20" cy="30" r="8" fill="#EA4335" />
  <circle cx="100" cy="40" r="6" fill="#FBBC04" />
  <circle cx="85" cy="100" r="7" fill="#34A853" />
  <circle cx="30" cy="95" r="5" fill="#4285F4" />

  <circle cx="25" cy="65" r="2" fill="#BDC1C6" />
  <circle cx="95" cy="75" r="2" fill="#BDC1C6" />
  <circle cx="60" cy="15" r="3" fill="#BDC1C6" />

  <path d="M 35 55 C 35 30, 85 30, 85 55 L 85 75 C 85 95, 35 95, 35 75 Z" fill="#FFFFFF" stroke="#5F6368" stroke-width="4" stroke-linejoin="round"/>

  <path d="M 43 50 C 43 38, 77 38, 77 50 L 77 65 C 77 78, 43 78, 43 65 Z" fill="#202124"/>

  <path d="M 64 46 L 65 49 L 68 50 L 65 51 L 64 54 L 63 51 L 60 50 L 63 49 Z" fill="#8AB4F8"/>
</svg>
